<?xml version="1.0" encoding="UTF-8"?>
<svg id="Layer_1" data-name="Layer 1" xmlns="http://www.w3.org/2000/svg" version="1.1" viewBox="0 0 317.4 67.7">
  <defs>
    <style>
      .cls-1 {
        fill: #333;
      }

      .cls-1, .cls-2, .cls-3, .cls-4 {
        stroke-width: 0px;
      }

      .cls-2 {
        fill: none;
      }

      .cls-3 {
        fill: #4ac0bb;
      }

      .cls-4 {
        fill: #ec5c1f;
      }
    </style>
  </defs>
  <path class="cls-2" d="M223,47.9c-1.6,0-3,.6-4.1,1.7-1.1,1.1-1.6,2.5-1.6,4.3s.5,3.2,1.6,4.3c1.1,1.2,2.4,1.7,4.1,1.7s3-.6,4.1-1.7c1.1-1.1,1.6-2.5,1.6-4.3s-.5-3.2-1.6-4.3c-1.1-1.2-2.4-1.7-4.1-1.7Z"/>
  <path class="cls-2" d="M196.3,47.8c-1.6,0-3,.6-4,1.7-1,1.2-1.6,2.6-1.6,4.3s.5,3.2,1.6,4.3c1,1.2,2.4,1.7,4,1.7s3.1-.5,4.1-1.7c1-1.1,1.5-2.5,1.5-4.2s-.5-3.1-1.5-4.3c-1-1.2-2.4-1.7-4.1-1.7Z"/>
  <path class="cls-2" d="M44.1,21.8c.4,0,.8-.3,1.1-.6.3-.3.4-.9.4-1.6,0-.8-.1-1.4-.4-1.7h0c-.3-.3-.7-.6-1.1-.7-.6,0-1.2-.1-1.8-.1-.3,0-.6,0-.9,0-1.2,0-3,0-5.6,0v4.8h6.5c.6,0,1.2,0,1.8-.1Z"/>
  <path class="cls-2" d="M28.1,47.5c-1.4,0-2.4.4-3.3,1.2-.8.7-1.4,1.8-1.6,3.2h9.6c-.3-1.4-.8-2.4-1.6-3.2-.8-.7-1.8-1.2-3.1-1.2Z"/>
  <path class="cls-2" d="M249.3,48c-1.6,0-3,.5-4,1.7-1,1.1-1.6,2.5-1.6,4.2s.5,3.1,1.6,4.2c1,1.2,2.4,1.7,4,1.7s3-.5,4-1.7c1-1.2,1.6-2.6,1.6-4.3s-.5-3.1-1.6-4.1c-1-1.2-2.4-1.7-4-1.7Z"/>
  <polygon class="cls-2" points="54.1 23 60.5 23 57.3 17.1 54.1 23"/>
  <path class="cls-2" d="M78.3,48.6c-.8-.7-1.8-1.2-3.1-1.2s-2.4.4-3.3,1.2c-.8.7-1.4,1.8-1.6,3.2h9.6c-.2-1.4-.7-2.4-1.6-3.2Z"/>
  <path class="cls-2" d="M100.8,48c-1.6,0-3,.6-4,1.7-1,1.1-1.6,2.5-1.6,4.2s.5,3.1,1.6,4.2c1,1.2,2.4,1.7,4,1.7s3-.5,4-1.7c1-1.2,1.6-2.6,1.6-4.3s-.5-3.1-1.6-4.1c-1-1.2-2.4-1.7-4-1.7Z"/>
  <path class="cls-4" d="M304.8,11c0-1.2-.9-2-2.1-2.1-1.2,0-2.1,1-2.1,2.1s1,2.1,2.1,2.1,2.1-1,2.1-2.1Z"/>
  <path class="cls-4" d="M297.7,23.8c1.1,0,1.9-.9,1.9-1.9v-11.1c0-1.1-.8-1.9-1.9-1.9s-1.9.9-1.9,1.9v11.1c0,1.1.8,1.9,1.9,1.9Z"/>
  <path class="cls-3" d="M304.2,16.5c-2,0-3.6,1.6-3.6,3.6s1.6,3.6,3.6,3.6,3.6-1.6,3.6-3.6-1.6-3.6-3.6-3.6Z"/>
  <path class="cls-1" d="M277.1,51.4l-1.9-.3c-1.2-.2-2-.4-2.7-.6-.6-.3-.9-.7-.9-1.2s.3-1.1.8-1.4c.5-.3,1.4-.5,2.4-.5s2.3.2,3.5.5c1.4.3,2.5.7,3.5,1.2l2-4.5c-2.8-1.4-5.8-2-9-2s-5.1.6-6.7,1.9c-1.6,1.2-2.4,3-2.4,5.2,0,3.7,2.5,5.8,7.5,6.5l1.8.3c1.3.2,2.2.4,2.7.7.5.3.8.7.8,1.2,0,1.4-1.4,2-4,2s-5.2-.7-7.3-2.1l-2.3,4.4c2.4,1.7,5.6,2.5,9.6,2.5s5.5-.7,7.3-2c1.8-1.3,2.7-3.1,2.7-5.4,0-3.5-2.4-5.7-7.3-6.4Z"/>
  <path class="cls-1" d="M197.4,42.5c-2.7,0-4.8,1-6.3,2.9v-12.7h-5.8v32h5.7v-2.4c1.6,2,3.7,2.9,6.5,2.9s5.4-1.1,7.4-3.3c2-2.2,3-4.9,3-8.1s-1-5.9-3-8.1c-2-2.2-4.5-3.3-7.5-3.3ZM200.4,58.1c-1,1.2-2.4,1.7-4.1,1.7s-3-.5-4-1.7c-1-1.1-1.6-2.5-1.6-4.3s.5-3.1,1.6-4.3c1-1.1,2.4-1.7,4-1.7s3.1.5,4.1,1.7c1,1.2,1.5,2.6,1.5,4.3s-.5,3.1-1.5,4.2Z"/>
  <path class="cls-1" d="M123.6,45.4v-2.4h-5.6v21.6h5.8v-11.7c0-1.6.4-2.8,1.2-3.6.8-.8,1.9-1.3,3.3-1.3s2.4.3,3.5.7l.9-5.8c-.9-.3-1.9-.5-3.1-.5-2.7,0-4.8,1-6,2.9Z"/>
  <path class="cls-1" d="M146,59.8c-1.6,0-2.9-.6-3.9-1.7-1-1.1-1.6-2.5-1.6-4.3s.5-3.2,1.6-4.3c1-1.1,2.3-1.6,3.9-1.6s3.3.7,4.6,2.2l4.2-3.5c-1-1.3-2.2-2.3-3.7-3-1.5-.7-3.1-1.1-4.9-1.1-3.4,0-6.2,1.1-8.3,3.2-2.1,2.1-3.2,4.8-3.2,8.1s1.1,6,3.2,8.1c2.1,2.1,4.9,3.2,8.3,3.2s6.5-1.4,8.7-4.1l-4.1-3.5c-1.4,1.4-2.9,2.2-4.7,2.2Z"/>
  <path class="cls-1" d="M222.9,42.5c-3.3,0-6.1,1.1-8.4,3.3-2.2,2.2-3.3,4.9-3.3,8.1s1.1,6,3.3,8.1c2.2,2.2,5,3.3,8.4,3.3s6.2-1.1,8.4-3.3c2.2-2.2,3.3-4.9,3.3-8.1s-1.1-6-3.3-8.1c-2.2-2.2-5-3.3-8.4-3.3ZM227,58.1c-1.1,1.1-2.4,1.7-4.1,1.7s-3-.5-4.1-1.7c-1.1-1.1-1.6-2.5-1.6-4.3s.5-3.2,1.6-4.3c1.1-1.1,2.4-1.7,4.1-1.7s3,.5,4.1,1.7c1.1,1.1,1.6,2.5,1.6,4.3s-.5,3.2-1.6,4.3Z"/>
  <path class="cls-1" d="M300.8,0c-9,0-16.3,7.3-16.3,16.3s7.3,16.3,16.3,16.3,16.3-7.3,16.3-16.3S309.8,0,300.8,0ZM304.2,23.7c-2,0-3.6-1.6-3.6-3.6s1.6-3.6,3.6-3.6,3.6,1.6,3.6,3.6-1.6,3.6-3.6,3.6ZM300.6,11c0-1.2,1-2.1,2.1-2.1,1.2,0,2.1,1,2.1,2.1s-1,2.1-2.1,2.1-2.1-1-2.1-2.1ZM295.8,10.7c0-1,.8-1.9,1.9-1.9s1.9.8,1.9,1.9v11.1c0,1-.8,1.9-1.9,1.9s-1.9-.8-1.9-1.9v-11.1Z"/>
  <path class="cls-1" d="M254.6,45.3c-1.6-1.9-3.7-2.9-6.3-2.9s-5.4,1.1-7.5,3.3c-2,2.2-3,4.9-3,8.1s1,5.9,3,8.1c2,2.2,4.5,3.3,7.5,3.3s4.9-1,6.5-2.9v2.4h5.6v-32h-5.8v12.7ZM253.3,58.1c-1,1.2-2.4,1.7-4,1.7s-3-.5-4-1.7c-1-1.2-1.6-2.6-1.6-4.2s.5-3.1,1.6-4.2c1-1.2,2.4-1.7,4-1.7s3,.5,4,1.7c1,1,1.6,2.4,1.6,4.1s-.5,3.1-1.6,4.3Z"/>
  <path class="cls-1" d="M171,42.6c-2.7,0-4.8,1-6.2,2.9v-12.8h-5.8v32h5.8v-11.8c0-1.6.4-2.8,1.3-3.6.9-.8,2-1.3,3.3-1.3s2.4.4,3.1,1.2c.7.8,1.1,2,1.1,3.6v11.9h5.8v-13.7c0-2.5-.8-4.5-2.4-6-1.6-1.6-3.6-2.3-6-2.3Z"/>
  <path class="cls-1" d="M28.2,42.5c-3.3,0-5.8,1.1-7.9,3.2-2,2.1-3.1,4.9-3.1,8.3s1,6.1,3.1,8.1c2,2,4.8,3.1,8.1,3.1s6.8-1.1,9.2-3.3l-3.4-3.7c-.7.7-1.6,1.2-2.6,1.5-1,.3-1.9.5-2.9.5-1.4,0-2.7-.3-3.6-1.1-1-.7-1.6-1.8-1.9-3.4h15.2c0-.5.1-1.2.1-2,0-3.4-1-6.1-2.9-8.2-2-2.1-4.5-3.1-7.5-3.1ZM23.2,51.8c.3-1.4.8-2.4,1.6-3.2.8-.7,1.9-1.2,3.3-1.2s2.2.4,3.1,1.2c.8.7,1.4,1.8,1.6,3.2h-9.6Z"/>
  <path class="cls-1" d="M6.2,45.4v-2.4H.6v21.6h5.8v-11.7c0-1.6.4-2.8,1.2-3.6.8-.8,1.9-1.3,3.3-1.3s2.4.3,3.5.7l.9-5.8c-.9-.3-1.9-.5-3.1-.5-2.7,0-4.8,1-6,2.9Z"/>
  <path class="cls-1" d="M53.7,51.4l-1.9-.3c-1.2-.2-2-.4-2.7-.6-.3-.3-.7-.7-.7-1.2s.3-1.1.8-1.4c.5-.3,1.4-.5,2.4-.5s2.3.2,3.5.5c1.2.3,2.4.7,3.3,1.2l2-4.5c-2.8-1.4-5.8-2-9-2s-5.1.6-6.7,1.9c-1.6,1.2-2.4,3-2.4,5.2,0,3.7,2.5,5.8,7.5,6.5l1.8.3c1.3.2,2.2.4,2.7.7.5.3.8.7.8,1.2,0,1.4-1.4,2-4,2s-5.2-.7-7.3-2.1l-2.3,4.4c2.4,1.7,5.6,2.5,9.6,2.5s5.5-.7,7.3-2c1.8-1.3,2.7-3.1,2.7-5.4,0-3.5-2.4-5.7-7.3-6.4Z"/>
  <path class="cls-1" d="M75.4,42.5c-3.3,0-5.8,1.1-7.9,3.2-2,2.1-3.1,4.9-3.1,8.3s1,6.1,3.1,8.1c2,2,4.8,3.1,8.1,3.1s6.8-1.1,9.2-3.3l-3.4-3.7c-.7.7-1.6,1.2-2.6,1.5-1,.3-1.9.5-2.9.5-1.4,0-2.7-.3-3.6-1.1-1-.7-1.6-1.8-1.9-3.4h15.2c0-.5.1-1.2.1-2,0-3.4-1-6.1-2.9-8.2-2-2.1-4.5-3.1-7.5-3.1ZM70.4,51.8c.3-1.4.8-2.4,1.6-3.2.8-.7,1.9-1.2,3.3-1.2s2.2.4,3.1,1.2c.9.7,1.4,1.8,1.6,3.2h-9.6Z"/>
  <path class="cls-1" d="M106.1,45.4c-1.6-2-3.7-3-6.5-3s-5.4,1.1-7.5,3.3c-2,2.2-3,4.9-3,8.1s1,5.9,3,8.1,4.5,3.3,7.5,3.3,4.9-1,6.5-2.9v2.4h5.7v-21.6h-5.7v2.4ZM104.8,58.1c-1,1.2-2.4,1.7-4,1.7s-3-.5-4-1.7c-1-1.2-1.6-2.6-1.6-4.2s.5-3.1,1.6-4.2c1-1.1,2.4-1.7,4-1.7s3,.5,4,1.7c1,1,1.6,2.4,1.6,4.1s-.5,3.1-1.6,4.3Z"/>
  <path class="cls-1" d="M4.2,17.3c1.3-.4,2.6-.6,3.9-.6,1.2,0,2.4.3,3.6.7,1,.4,1.5,1.1,1.5,1.9h2.4c0-1.3-.4-2.3-1.3-3-.9-.7-1.9-1.2-3-1.4-2.8-.6-5.8-.4-8.6.5-1.6.6-2.4,1.8-2.4,3.7s.3,1.9,1,2.4c.7.6,1.6.9,2.5,1,1.4.2,2.8.2,4.2.2h.5c1.2,0,2.3,0,3.5.2.9.2,1.4.5,1.4,1.1h0c0,.9-.5,1.5-1.5,1.9-1.1.4-2.3.6-3.5.6-.8,0-1.7,0-2.5-.1-.8,0-1.5-.3-2.2-.8-.3-.2-.6-.5-.8-.8-.2-.3-.3-.7-.2-1.1H.2c0,1.4.5,2.4,1.4,3.1.9.7,2,1.2,3.1,1.4,1.1.2,2.2.3,3.3.4,1.8,0,3.6-.3,5.2-.9,1.5-.6,2.3-1.9,2.3-3.7s-.3-1.8-1-2.3c-.8-.5-1.7-.9-2.6-1-1.3-.2-2.6-.2-3.8-.2h-.5c-1.2,0-2.4,0-3.6-.3-1-.2-1.5-.6-1.5-1.3s.5-1.4,1.6-1.8Z"/>
  <polygon class="cls-1" points="23.3 28.3 25.6 28.3 25.6 17.1 31.7 17.1 31.7 15 17.1 15 17.1 17.1 23.3 17.1 23.3 28.3"/>
  <path class="cls-1" d="M35.9,24h5.7l3.6,4.3h3l-3.8-4.5c1.2-.3,2.1-.8,2.7-1.5.7-.8,1-1.8,1-2.8h0c0-.9-.2-1.7-.7-2.4-.5-.7-1.2-1.2-2-1.6-.9-.4-1.9-.6-2.9-.5h-9v13.3h2.3v-4.3ZM35.8,17.1c2.5,0,4.4,0,5.6,0,.2,0,.5,0,.9,0,.6,0,1.2,0,1.8.1.4,0,.8.3,1.1.7h0c.3.4.4.9.4,1.7,0,.7-.1,1.3-.4,1.6-.3.3-.7.6-1.1.6-.6,0-1.2.1-1.8.1h-6.5v-4.8Z"/>
  <path class="cls-1" d="M58.7,15h-2.8l-7.1,13.3h2.5l1.7-3.1h8.7l1.7,3.1h2.5l-7.1-13.3ZM54.1,23l3.2-6,3.2,6h-6.4Z"/>
  <polygon class="cls-1" points="69.3 28.3 71.6 28.3 71.6 17.1 77.7 17.1 77.7 15 63.1 15 63.1 17.1 69.3 17.1 69.3 28.3"/>
  <path class="cls-1" d="M90.9,20.6s0,0,0-.1c.2-.3.2-.3.3-.4,0,0,0,0,.1,0,0,0,.2,0,.4,0,0,0,0,0,0,0,0,0,0,0,.1,0,.7-.1,1.3-.1,2,0,.1,0,.3,0,.5,0,.1,0,.2,0,.3-.1,0,0,.1-.2.2-.3,0-.1,0-.2,0-.4,0-.1,0-.2-.2-.3-.1,0-.3-.2-.5-.2-.6-.1-1.3-.2-1.9-.1,0,0,0,0,0,0,1.3-1.6,2.2-2.8,2.6-3.3.4-.6.4-1,.2-1.2-.2-.3-.5-.5-1-.6-.6-.1-1.2-.2-1.8-.1-1.5,0-3.1.1-4.7.3-1.6.2-2.8.3-3.6.4-.7.2-1.1.3-1.4.6-.1.1-.2.3-.2.5,0,.1,0,.3.1.4.1.2.3.3.5.5,0,0,.2,0,.2.1,0,0,0,0,0,0h0c.1,0,.3,0,.4.1.1,0,.2,0,.3,0,.1,0,.2-.1.3-.3,0,0,0-.2,0-.2s0,0,0,0c0,0,0,0,.3,0,.1,0,.3,0,.5,0h.1c.9-.2,1.9-.3,3.5-.5,1.2-.2,2.5-.3,3.7-.3.4,0,.7,0,.9,0,0,0,0,0,0,0,0,0-.2.2-.3.3,0,0-.2.2-.2.2,0,0-.2.2-.4.5-.4.5-1,1.3-1.8,2.2,0,0-.1.2-.2.2h.1c0,.1-.2,0-.2,0h0c-.2.4-.3.4-.4.5,0,0-.2,0-.6.1,0,0,0,0-.1,0v.2s0-.1,0-.1c0,0-.1,0-.2,0h-.4c-.5.2-.9.3-1.3.3-.6.1-1.2.2-1.6.3-.6.2-.9.3-1.1.5-.1.1-.2.3-.2.4,0,.1,0,.3.2.4.1,0,.3.2.5.2,0,0,.1,0,.2,0h.1s0,0,0,0c.2,0,.4,0,.7-.1h0c.1,0,.2,0,.3-.1.3,0,.6-.1.9-.2h.6c.2-.2.4-.2.6-.3,0,0,.1,0,.2,0-1.4,1.8-2.6,3.5-3.6,5.1-1.2,1.8-1.9,3.2-2.3,4.4-.2.7-.1,1.2.2,1.5.2.1.4.2.7.3,0,0,0,0,.1,0,.2,0,.5,0,.8,0h0c.3-.1.6-.5.4-.8,0-.2-.2-.3-.4-.4-.2,0-.3,0-.5,0,0-.1.1-.4.4-.9.8-1.4,1.6-2.7,2.5-4,1.2-1.7,2.4-3.4,3.5-4.9,0,0,0,0,0-.1Z"/>
</svg>